<?xml version="1.0" encoding="utf-8"?>
<!-- Generator: Adobe Illustrator 22.1.0, SVG Export Plug-In . SVG Version: 6.00 Build 0)  -->
<svg version="1.1" id="Layer_1" xmlns="http://www.w3.org/2000/svg" xmlns:xlink="http://www.w3.org/1999/xlink" x="0px" y="0px"
	 viewBox="0 0 512 512" style="enable-background:new 0 0 512 512;" xml:space="preserve">
<style type="text/css">
	.st0{fill:#91A5AF;}
</style>
<g>
	<g>
		<path class="st0" d="M492,189.9L268.2,24.4c-4.3-3.2-10.2-3.2-14.5,0L30,189.9c-5.5,4-6.7,11.8-2.7,17.3c4,5.5,11.7,6.7,17.1,2.7
			L261,49.8l216.5,160.2c2.2,1.6,4.7,2.4,7.2,2.4c3.8,0,7.5-1.8,9.9-5.1C498.6,201.7,497.4,194,492,189.9z"/>
	</g>
</g>
<g>
	<g>
		<path class="st0" d="M432.7,212.7c-6.8,0-12.3,5.5-12.3,12.4v197.3h-98.1V314.7c0-34.2-27.5-62-61.3-62s-61.3,27.8-61.3,62v107.7
			h-98.1V225.1c0-6.8-5.5-12.4-12.3-12.4S77,218.3,77,225.1v209.7c0,6.8,5.5,12.4,12.3,12.4h122.6c6.4,0,11.7-5,12.2-11.4
			c0-0.3,0-0.6,0-1V314.7c0-20.5,16.5-37.2,36.8-37.2s36.8,16.7,36.8,37.2v120.1c0,0.4,0,0.7,0,1c0.5,6.4,5.8,11.4,12.2,11.4h122.6
			c6.8,0,12.3-5.5,12.3-12.4V225.1C445,218.3,439.5,212.7,432.7,212.7z"/>
	</g>
</g>
</svg>
