<?xml version="1.0" encoding="utf-8"?>
<!-- Generator: Adobe Illustrator 22.1.0, SVG Export Plug-In . SVG Version: 6.00 Build 0)  -->
<svg version="1.1" id="Capa_1" xmlns="http://www.w3.org/2000/svg" xmlns:xlink="http://www.w3.org/1999/xlink" x="0px" y="0px"
	 viewBox="0 0 52 52" style="enable-background:new 0 0 52 52;" xml:space="preserve">
<g>
	<path d="M50.7,18.3c-0.7-8-6.4-13.8-13.6-13.8c-4.8,0-9.1,2.5-11.5,6.6C23.2,6.9,19,4.4,14.3,4.4c-7.1,0-12.8,5.8-13.6,13.8
		c-0.1,0.4-0.3,2.2,0.4,5.3c1,4.4,3.4,8.4,6.9,11.5l17.5,15.8l17.8-15.8c3.5-3.2,5.9-7.1,6.9-11.5C51,20.5,50.8,18.6,50.7,18.3z
		 M47.2,23.4c-0.9,3.8-3,7.3-6,10L25.5,47.3L10.2,33.4c-3-2.8-5.1-6.2-6-10c-0.6-2.7-0.4-4.3-0.4-4.3l0-0.1C4.4,12.4,9,7.5,14.8,7.5
		c4.3,0,8.1,2.6,9.9,6.8l0.8,2l0.8-2c1.8-4.2,5.7-6.8,10.1-6.8c5.8,0,10.5,4.8,11.1,11.6C47.5,19.1,47.8,20.7,47.2,23.4z"/>
</g>
</svg>
