<?xml version="1.0" encoding="utf-8"?>
<!-- Generator: Adobe Illustrator 22.1.0, SVG Export Plug-In . SVG Version: 6.00 Build 0)  -->
<svg version="1.1" id="Capa_1" xmlns="http://www.w3.org/2000/svg" xmlns:xlink="http://www.w3.org/1999/xlink" x="0px" y="0px"
	 viewBox="0 0 31 31" style="enable-background:new 0 0 31 31;" xml:space="preserve">
<g>
	<path d="M27,23.1H5.2c-1.1,0-2-0.9-2-2V7.4c0-1.1,0.9-2,2-2h20.6c1.1,0,2,0.9,2,2v14.8C27.8,22.7,27.4,23.1,27,23.1z M5.5,6.7
		c-0.6,0-1.1,0.5-1.1,1.2v12.9c0,0.7,0.5,1.2,1.2,1.2h19.9c0.6,0,1.2-0.5,1.2-1.2V7.9c0-0.7-0.5-1.2-1.2-1.2H5.5z"/>
	<path d="M15.5,16.8c-0.5,0-1.1-0.2-1.5-0.6L3.9,6.8C3.7,6.6,3.7,6.4,3.8,6.2C4,6,4.2,6,4.4,6.2l10.1,9.5c0.5,0.5,1.4,0.5,1.8,0
		l10.3-9.5c0.2-0.2,0.4-0.1,0.5,0c0.2,0.2,0.1,0.5,0,0.6l-10.2,9.5C16.6,16.6,16,16.8,15.5,16.8z"/>
</g>
</svg>
