<?xml version="1.0" encoding="utf-8"?>
<!-- Generator: Adobe Illustrator 22.1.0, SVG Export Plug-In . SVG Version: 6.00 Build 0)  -->
<svg version="1.1" id="Capa_1" xmlns="http://www.w3.org/2000/svg" xmlns:xlink="http://www.w3.org/1999/xlink" x="0px" y="0px"
	 viewBox="0 0 31 31" style="enable-background:new 0 0 31 31;" xml:space="preserve">
<style type="text/css">
	.st0{fill:#91A5AF;}
</style>
<g>
	<path class="st0" d="M25.9,25.8H3.3c-1.2,0-2.1-1.1-2.1-2.3V7.7c0-1.3,1-2.3,2.1-2.3h21.3c1.2,0,2.1,1.1,2.1,2.3v17.1
		C26.8,25.2,26.4,25.8,25.9,25.8z M3.7,6.9c-0.6,0-1.2,0.5-1.2,1.4v14.8c0,0.9,0.5,1.4,1.2,1.4h20.7c0.6,0,1.2-0.5,1.2-1.4V8.3
		c0-0.9-0.5-1.4-1.2-1.4H3.7z"/>
	<path class="st0" d="M14,18.5c-0.5,0-1.2-0.2-1.5-0.6L2,7C1.8,6.8,1.8,6.6,1.9,6.4C2.1,6,2.4,6,2.5,6.4L13,17.2
		c0.5,0.5,1.4,0.5,1.8,0L25.5,6.4c0.2-0.2,0.4-0.1,0.5,0c0.2,0.2,0.1,0.5,0,0.6L15.4,18C15.1,18.3,14.6,18.5,14,18.5z"/>
</g>
</svg>
