<?xml version="1.0" encoding="utf-8"?>
<!-- Generator: Adobe Illustrator 22.1.0, SVG Export Plug-In . SVG Version: 6.00 Build 0)  -->
<svg version="1.1" id="Layer_1" xmlns="http://www.w3.org/2000/svg" xmlns:xlink="http://www.w3.org/1999/xlink" x="0px" y="0px"
	 viewBox="0 0 64 64" style="enable-background:new 0 0 64 64;" xml:space="preserve">
<style type="text/css">
	.st0{fill:#456068;}
</style>
<g>
	<g>
		<path class="st0" d="M15.5,25.5c0.4,0.5,1,0.7,1.5,0.7s1-0.2,1.3-0.5c0.8-0.8,0.9-2,0.2-2.9L11,14.3l0,0l-0.1-0.1l0,0
			C10.8,14,10.7,14,10.6,14c-0.1-0.1-0.2-0.1-0.3-0.2h-0.1c-0.1,0-0.2-0.1-0.3-0.1s-0.2-0.1-0.3-0.1c0,0,0,0-0.1,0s0,0-0.1,0
			s-0.2,0-0.3,0.1c-0.1,0-0.2,0-0.3,0.1H8.7c-0.1,0-0.2,0.1-0.3,0.2c-0.1,0-0.2,0-0.2,0.1l0,0l-0.1,0.1l0,0l-7.5,8.5
			c-0.7,0.8-0.7,2.1,0.2,2.9C1.1,26,1.5,26.2,2,26.2c0.6,0,1.1-0.2,1.5-0.7l4-4.5v23.4c0,3.4,2.7,6.1,6.1,6.1h29.1c1.1,0,2-0.9,2-2
			s-0.9-2-2-2H13.5c-1.1,0-2-0.9-2-2V21L15.5,25.5z"/>
		<path class="st0" d="M60.5,38.7l-4,4.5V19.7c0-3.4-2.7-6.1-6.1-6.1H22c-1.1,0-2,0.9-2,2s0.9,2,2,2h28.4c1.1,0,2,0.9,2,2V43l-4-4.5
			c-0.7-0.8-2-0.9-2.9-0.2c-0.8,0.8-0.9,2-0.2,2.9l7.5,8.5l0,0l0.1,0.1l0,0c0.1,0.1,0.2,0.1,0.3,0.2c0,0,0.1,0,0.1,0.1l0.1,0.1
			c0,0,0,0,0.1,0c0.2,0.1,0.5,0.2,0.7,0.2c0.3,0,0.5-0.1,0.7-0.2c0,0,0,0,0.1,0l0.1-0.1c0,0,0.1,0,0.1-0.1c0.1-0.1,0.2-0.1,0.3-0.2
			l0,0l0.1-0.1l0,0l7.5-8.5c0.7-0.8,0.7-2.1-0.2-2.9C62.5,37.7,61.2,37.8,60.5,38.7z"/>
	</g>
</g>
</svg>
