<?xml version="1.0" encoding="utf-8"?>
<!-- Generator: Adobe Illustrator 22.1.0, SVG Export Plug-In . SVG Version: 6.00 Build 0)  -->
<svg version="1.1" id="Layer_1" xmlns="http://www.w3.org/2000/svg" xmlns:xlink="http://www.w3.org/1999/xlink" x="0px" y="0px"
	 viewBox="0 0 512 512" style="enable-background:new 0 0 512 512;" xml:space="preserve">
<style type="text/css">
	.st0{fill:#94A5AF;}
</style>
<g>
	<g>
		<path class="st0" d="M485.4,378.1c-52.7-52.7-60.7-79.2-60.7-163.5c0-86.7-70.2-156.9-156.9-156.9s-156.9,70.3-156.9,156.9
			c0,45.4-1.2,62.4-7.5,83.2c-7.8,25.9-23.7,50.8-53.2,80.3c-14.1,14.1-4.1,38.3,15.8,38.3h124.4l-1.1,11.2
			c0,43.3,35.1,78.5,78.4,78.5s78.4-35.1,78.4-78.5l-1.1-11.2h124.4C489.5,416.3,499.5,392.2,485.4,378.1z M267.8,483.6
			c-30.9,0-56-25.1-56-56l1.1-11.2h109.8l1.1,11.2C323.9,458.5,298.8,483.6,267.8,483.6z M66.1,393.9
			c67.2-67.3,67.2-112.1,67.2-179.3c0-74.3,60.2-134.5,134.5-134.5s134.5,60.2,134.5,134.5c0,67.3,0,112.1,67.2,179.3H66.1z"/>
	</g>
</g>
</svg>
