<?xml version="1.0" encoding="utf-8"?>
<!-- Generator: Adobe Illustrator 22.1.0, SVG Export Plug-In . SVG Version: 6.00 Build 0)  -->
<svg version="1.1" id="Capa_1" xmlns="http://www.w3.org/2000/svg" xmlns:xlink="http://www.w3.org/1999/xlink" x="0px" y="0px"
	 viewBox="0 0 33 33" style="enable-background:new 0 0 33 33;" xml:space="preserve">
<style type="text/css">
	.st0{fill:#1D282D;}
</style>
<g>
	<path class="st0" d="M8.8,29.3c-0.1,0-0.2,0-0.2-0.1c-0.2-0.1-0.3-0.2-0.3-0.3v-5.8c-3.9-1.9-6-5.1-6-9.2c0-6.3,6.3-11,14.6-11
		s14.6,4.7,14.6,11s-6.3,11-14.6,11c-0.3,0-0.5,0-0.8,0l0,0l-7.1,4.3C9,29.3,8.9,29.3,8.8,29.3z M16.8,4.5C9.2,4.5,3.4,8.6,3.4,14
		c0,2.5,0.9,5.9,5.6,7.9c0.2,0.1,0.3,0.2,0.3,0.3v4.9l6.4-3.7c0.1-0.1,0.2-0.1,0.3-0.1h0.2c0.3,0,0.5,0,0.8,0
		c7.5,0.2,13.3-3.9,13.3-9.4S24.3,4.5,16.8,4.5z"/>
</g>
</svg>
